<svg width="40" height="40" viewBox="0 0 40 40" fill="none" xmlns="http://www.w3.org/2000/svg">
<path d="M28.333 11.6667H6.66634C5.78229 11.6667 4.93444 12.0178 4.30932 12.643C3.6842 13.2681 3.33301 14.1159 3.33301 15V25C3.33301 25.884 3.6842 26.7319 4.30932 27.357C4.93444 27.9821 5.78229 28.3333 6.66634 28.3333H28.333C29.2171 28.3333 30.0649 27.9821 30.69 27.357C31.3152 26.7319 31.6663 25.884 31.6663 25V15C31.6663 14.1159 31.3152 13.2681 30.69 12.643C30.0649 12.0178 29.2171 11.6667 28.333 11.6667ZM28.333 25H6.66634V15H28.333V25ZM34.9997 16.6667C34.5576 16.6667 34.1337 16.8423 33.8212 17.1548C33.5086 17.4674 33.333 17.8913 33.333 18.3333V21.6667C33.333 22.1087 33.5086 22.5326 33.8212 22.8452C34.1337 23.1577 34.5576 23.3333 34.9997 23.3333C35.4417 23.3333 35.8656 23.1577 36.1782 22.8452C36.4907 22.5326 36.6663 22.1087 36.6663 21.6667V18.3333C36.6663 17.8913 36.4907 17.4674 36.1782 17.1548C35.8656 16.8423 35.4417 16.6667 34.9997 16.6667Z" fill="white"/>
</svg>
