<svg width="32" height="32" viewBox="0 0 32 32" fill="none" xmlns="http://www.w3.org/2000/svg">
<path d="M28.5068 7.68001C28.4613 7.50976 28.3825 7.35021 28.2749 7.21061C28.1673 7.071 28.0331 6.95411 27.8801 6.86668L20.9468 2.86668C20.7954 2.77797 20.628 2.72001 20.4542 2.69613C20.2803 2.67224 20.1035 2.6829 19.9338 2.72749C19.7641 2.77209 19.6049 2.84974 19.4653 2.95599C19.3256 3.06224 19.2083 3.19501 19.1201 3.34668L16.0001 8.76001L12.8801 3.34668C12.7919 3.19501 12.6746 3.06224 12.535 2.95599C12.3954 2.84974 12.2361 2.77209 12.0664 2.72749C11.8967 2.6829 11.7199 2.67224 11.5461 2.69613C11.3722 2.72001 11.2048 2.77797 11.0535 2.86668L4.12012 6.86668C3.9671 6.95411 3.83293 7.071 3.72536 7.21061C3.6178 7.35021 3.53898 7.50976 3.49346 7.68001C3.40521 8.01794 3.45309 8.37701 3.62679 8.68001L8.96012 17.7867C8.36512 18.8767 8.03618 20.092 8.00013 21.3333C7.99695 22.5444 8.26877 23.7404 8.79508 24.8311C9.3214 25.9218 10.0885 26.8787 11.0385 27.6298C11.9885 28.3809 13.0966 28.9065 14.2793 29.167C15.462 29.4275 16.6884 29.4161 17.866 29.1337C19.0437 28.8512 20.1418 28.305 21.0777 27.5364C22.0135 26.7677 22.7627 25.7966 23.2686 24.6963C23.7745 23.596 24.024 22.3952 23.9983 21.1844C23.9726 19.9737 23.6723 18.7845 23.1201 17.7067L28.3201 8.69335C28.4169 8.54527 28.4833 8.37941 28.5153 8.20544C28.5473 8.03147 28.5445 7.85286 28.5068 7.68001ZM6.66679 8.50668L11.2801 5.84001L15.5735 13.3333C13.7434 13.4464 12.0092 14.191 10.6668 15.44L6.66679 8.50668ZM16.0001 26.6667C14.5856 26.6667 13.2291 26.1048 12.2289 25.1046C11.2287 24.1044 10.6668 22.7478 10.6668 21.3333C10.6668 19.9189 11.2287 18.5623 12.2289 17.5621C13.2291 16.5619 14.5856 16 16.0001 16C17.4146 16 18.7712 16.5619 19.7714 17.5621C20.7716 18.5623 21.3335 19.9189 21.3335 21.3333C21.3335 22.7478 20.7716 24.1044 19.7714 25.1046C18.7712 26.1048 17.4146 26.6667 16.0001 26.6667ZM21.3335 15.4C20.6096 14.7388 19.7685 14.2188 18.8535 13.8667L17.5468 11.4267L20.7735 5.84001L25.3868 8.50668L21.3335 15.4Z" fill="white"/>
</svg>
