<svg width="20" height="20" viewBox="0 0 20 20" fill="none" xmlns="http://www.w3.org/2000/svg">
<path d="M14.608 12.172C14.608 13.012 14.847 13.347 15.472 13.347C16.865 13.347 17.752 11.572 17.752 8.62001C17.752 4.10801 14.464 1.94801 10.359 1.94801C6.13601 1.94801 2.29501 4.78001 2.29501 10.132C2.29501 15.244 5.65501 18.028 10.815 18.028C12.567 18.028 13.743 17.836 15.542 17.236L15.928 18.843C14.152 19.42 12.254 19.587 10.791 19.587C4.02301 19.587 0.39801 15.867 0.39801 10.131C0.39801 4.34701 4.59901 0.411011 10.383 0.411011C16.407 0.411011 19.598 4.01101 19.598 8.42701C19.598 12.171 18.423 15.027 14.727 15.027C13.046 15.027 11.943 14.355 11.799 12.866C11.367 14.522 10.215 15.027 8.65401 15.027C6.56601 15.027 4.81401 13.418 4.81401 10.179C4.81401 6.91501 6.35101 4.89901 9.11101 4.89901C10.575 4.89901 11.487 5.47501 11.893 6.38701L12.59 5.11501H14.606V12.172H14.608ZM11.657 9.00401C11.657 7.68501 10.672 7.13201 9.85601 7.13201C8.96801 7.13201 7.98501 7.85101 7.98501 9.96401C7.98501 11.644 8.72901 12.58 9.85601 12.58C10.648 12.58 11.657 12.076 11.657 10.684V9.00401Z" fill="black"/>
</svg>
